# xmcd
#
# Track frame offsets:
#	150
#	28733
#	42302
#	61124
#	73843
#	94858
#	112553
#	127006
#	144526
#	157744
#	171362
#	195003
#	212592
#	231528
#	250196
#
# Disc length: 3587 seconds
#
# Revision: 0
# Processed by: cddbd v1.5.2PL0 Copyright (c) Steve Scherf et al.
# Submitted via: EasyCDDAExtractor 16.0.6.1
#
DISCID=c90e010f
DTITLE=Λέκκας Βασίλης - Όρθιοι-Β. Λέκκας 2
DYEAR=2004
DGENRE=Ποικίλη
TTITLE0=Μην τον ρωτάς τον ουρανό
TTITLE1=Μπαλάντα των αισθήσεων και των παραισθήσεων
TTITLE2=Κεμάλ
TTITLE3=Ο γκρεμός
TTITLE4=Το δίχτυ
TTITLE5=Στου Θωμά
TTITLE6=Άναμπελ
TTITLE7=Ξημερώματα
TTITLE8=Τα δειλινά
TTITLE9=Αν θυμηθείς τ' όνειρό μου
TTITLE10=Αϊβαλί
TTITLE11=Κοίτα με στα μάτια
TTITLE12=Το τραγούδι της ξενητιάς
TTITLE13=Η Χώρα
TTITLE14=Τα λόγια και τα χρόνια
EXTD=
EXTT0=
EXTT1=
EXTT2=
EXTT3=
EXTT4=
EXTT5=
EXTT6=
EXTT7=
EXTT8=
EXTT9=
EXTT10=
EXTT11=
EXTT12=
EXTT13=
EXTT14=
PLAYORDER=
